<svg id="Capa_1" enable-background="new 0 0 511.766 511.766" height="512" viewBox="0 0 511.766 511.766" width="512" fill="#78281F" xmlns="http://www.w3.org/2000/svg"><g><path d="m227.831 229.925h-11.776c-9.692 0-17.578 7.886-17.578 17.578v205.129c0 9.692 7.885 17.578 17.578 17.578h11.776c9.692 0 17.578-7.886 17.578-17.578v-205.129c0-9.692-7.885-17.578-17.578-17.578zm2.578 222.707c0 1.422-1.156 2.578-2.578 2.578h-11.776c-1.421 0-2.578-1.156-2.578-2.578v-205.129c0-1.422 1.156-2.578 2.578-2.578h11.776c1.421 0 2.578 1.156 2.578 2.578z"/><path d="m164.525 280.561c-4.142 0-7.5 3.357-7.5 7.5v164.572c0 1.421-1.156 2.577-2.578 2.577h-11.776c-1.421 0-2.578-1.156-2.578-2.577v-166.432c0-4.143-3.358-7.5-7.5-7.5s-7.5 3.357-7.5 7.5v166.432c0 9.692 7.885 17.577 17.578 17.577h11.776c9.692 0 17.578-7.885 17.578-17.577v-164.572c0-4.143-3.358-7.5-7.5-7.5z"/><path d="m302.216 229.926h-11.776c-9.692 0-17.577 7.885-17.577 17.577v64.148c0 4.143 3.357 7.5 7.5 7.5s7.5-3.357 7.5-7.5v-64.148c0-1.421 1.156-2.577 2.577-2.577h11.776c1.422 0 2.578 1.156 2.578 2.577v205.13c0 1.421-1.156 2.577-2.578 2.577h-11.776c-1.421 0-2.577-1.156-2.577-2.577v-109.02c0-4.143-3.357-7.5-7.5-7.5s-7.5 3.357-7.5 7.5v109.02c0 9.692 7.885 17.577 17.577 17.577h11.776c9.692 0 17.578-7.885 17.578-17.577v-205.13c0-9.692-7.886-17.577-17.578-17.577z"/><path d="m401.727 170.326h-43.795v-16.521c11.639-6.437 19.54-18.838 19.54-33.053 0-10.083-3.927-19.563-11.056-26.692-7.13-7.13-16.609-11.057-26.692-11.056h-11.102v-4.287c0-20.814-16.934-37.748-37.748-37.748h-22.733c-2.5-23.004-22.041-40.969-45.698-40.969s-43.198 17.965-45.698 40.969h-22.733c-20.814 0-37.748 16.934-37.748 37.748v4.287h-11.102c-20.814 0-37.749 16.934-37.749 37.748 0 13.804 7.452 25.895 18.541 32.478v309.144c0 27.234 22.157 49.392 49.391 49.392h173.196c27.234 0 49.392-22.157 49.392-49.392v-47.792h43.795c23.504 0 42.625-19.121 42.625-42.625v-159.006c-.001-23.504-19.122-42.625-42.626-42.625zm-296.565-72.322h18.602c4.142 0 7.5-3.357 7.5-7.5v-11.787c0-12.543 10.205-22.748 22.748-22.748h27.462c5.515 0 10.001-4.486 10.001-10.001 0-17.076 13.892-30.968 30.968-30.968s30.968 13.892 30.968 30.968c0 5.515 4.487 10.001 10.002 10.001h27.462c12.543 0 22.748 10.205 22.748 22.748v11.787c0 4.143 3.357 7.5 7.5 7.5h18.602c6.076 0 11.789 2.365 16.085 6.662 4.297 4.297 6.663 10.01 6.663 16.086 0 12.543-10.205 22.748-22.748 22.748h-121.69c-14.287 0-27.718 5.563-37.82 15.665-10.102 10.103-15.666 23.534-15.666 37.82v42.118c0 7.282-5.924 13.206-13.206 13.206s-13.206-5.924-13.206-13.206v-79.122c0-9.088-7.394-16.481-16.482-16.481h-16.494c-12.543 0-22.748-10.205-22.748-22.748s10.205-22.748 22.749-22.748zm-.001 60.496h16.494c.817 0 1.482.665 1.482 1.481v22.944h-22.183v-24.665c1.382.154 2.785.24 4.207.24zm203.38 338.266h-173.196c-18.963 0-34.391-15.428-34.391-34.392v-264.448h22.183v41.178c0 15.553 12.653 28.206 28.206 28.206s28.206-12.653 28.206-28.206v-41.178h100.797c4.143 0 7.5-3.357 7.5-7.5s-3.357-7.5-7.5-7.5h-98.148c1.909-4.871 4.812-9.343 8.623-13.153 7.269-7.27 16.934-11.272 27.213-11.272h121.69c1.081 0 2.149-.056 3.208-.146v24.572h-30.624c-4.143 0-7.5 3.357-7.5 7.5s3.357 7.5 7.5 7.5h30.624v264.448c0 18.963-15.427 34.391-34.391 34.391zm120.811-124.809c0 15.232-12.393 27.625-27.625 27.625h-43.795v-17h43.795c5.858 0 10.625-4.767 10.625-10.625v-91.717c0-4.143-3.357-7.5-7.5-7.5s-7.5 3.357-7.5 7.5v87.342h-39.42v-150.256h39.42v30.952c0 4.143 3.357 7.5 7.5 7.5s7.5-3.357 7.5-7.5v-35.327c0-5.858-4.767-10.625-10.625-10.625h-43.795v-17h43.795c15.232 0 27.625 12.393 27.625 27.625z"/></g></svg>