<?xml version="1.0" encoding="iso-8859-1"?>
<!-- Generator: Adobe Illustrator 19.0.0, SVG Export Plug-In . SVG Version: 6.00 Build 0)  -->
<svg version="1.1" id="Capa_1" xmlns="http://www.w3.org/2000/svg" xmlns:xlink="http://www.w3.org/1999/xlink" x="0px" y="0px" fill="#78281F"
	 viewBox="0 0 512 512" style="enable-background:new 0 0 512 512;" xml:space="preserve">
<g>
	<g>
		<path d="M312.859,302.629L312.859,302.629L494.896,82.393H210.734C203.499,35.787,163.099,0,114.497,0
			C60.794,0,17.104,43.69,17.104,97.393s43.69,97.393,97.394,97.393c22.752,0,44.172-7.716,61.311-21.67l107.05,129.513V482h-77.731
			v30H390.59v-30h-77.731V302.629z M114.497,164.786c-37.161,0-67.394-30.232-67.394-67.393S77.336,30,114.497,30
			c32.004,0,58.849,22.431,65.689,52.393H100.82l55.865,67.587C144.862,159.516,130.133,164.786,114.497,164.786z M164.539,112.393
			h266.639l-43.306,52.393H207.845L164.539,112.393z M232.641,194.786h130.434l-65.217,78.902L232.641,194.786z"/>
	</g>
</g>
<g>
</g>
<g>
</g>
<g>
</g>
<g>
</g>
<g>
</g>
<g>
</g>
<g>
</g>
<g>
</g>
<g>
</g>
<g>
</g>
<g>
</g>
<g>
</g>
<g>
</g>
<g>
</g>
<g>
</g>
</svg>
