<svg id="Capa_1" enable-background="new 0 0 512 512" height="512" viewBox="0 0 512 512" width="512" fill="#78281F" xmlns="http://www.w3.org/2000/svg"><path d="m189 232.5h19.5c0 4.142 3.358 7.5 7.5 7.5s7.5-3.358 7.5-7.5v-7.5c0-4.142-3.358-7.5-7.5-7.5h-27c-4.142 0-7.5 3.358-7.5 7.5s3.358 7.5 7.5 7.5z"/><path d="m296 240c4.142 0 7.5-3.358 7.5-7.5h19.5c4.142 0 7.5-3.358 7.5-7.5s-3.358-7.5-7.5-7.5h-27c-4.142 0-7.5 3.358-7.5 7.5v7.5c0 4.142 3.358 7.5 7.5 7.5z"/><path d="m128.686 266.857c3.575 67.128 59.311 120.643 127.314 120.643s123.739-53.515 127.314-120.643c19.96-3.478 35.186-20.917 35.186-41.857 0-16.602-9.574-31.001-23.486-37.992 2.204-3.478 3.486-7.594 3.486-12.008v-30c0-9.835-6.345-18.211-15.155-21.263-3.277-67.406-59.141-121.237-127.345-121.237s-124.068 53.831-127.345 121.237c-8.81 3.052-15.155 11.427-15.155 21.263v30c0 4.413 1.282 8.53 3.486 12.008-13.912 6.991-23.486 21.39-23.486 37.992 0 20.94 15.226 38.379 35.186 41.857zm127.314 105.643c-59.512 0-108.371-46.451-112.244-105h224.488c-3.873 58.549-52.732 105-112.244 105zm112.244-250h-64.828c-.603-30.031-4.811-58.107-12.017-79.725-3.143-9.428-6.541-16.743-10.025-22.39 47.497 10.991 83.564 52.148 86.87 102.115zm-137.539-102.132c-5.118 8.24-9.57 19.211-13.174 32.695-1.069 4.002 1.308 8.113 5.309 9.182 4.002 1.07 8.113-1.307 9.182-5.309 7.281-27.242 17.289-39.436 23.978-39.436 5.149 0 13.783 7.862 21.169 30.019 6.719 20.157 10.653 46.553 11.244 74.981h-64.825c.263-12.578 1.18-24.826 2.755-36.497.554-4.105-2.325-7.882-6.43-8.436-4.108-.556-7.882 2.325-8.436 6.43-1.664 12.327-2.628 25.249-2.894 38.503h-64.828c3.308-49.995 39.415-91.168 86.95-102.132zm-102.205 124.632c0-4.136 3.364-7.5 7.5-7.5h240c4.136 0 7.5 3.364 7.5 7.5v30c0 4.136-3.364 7.5-7.5 7.5h-240c-4.136 0-7.5-3.364-7.5-7.5zm0 53.548v11.452c0 4.142 3.358 7.5 7.5 7.5s7.5-3.358 7.5-7.5v-12.5h225v12.5c0 4.142 3.358 7.5 7.5 7.5s7.5-3.358 7.5-7.5v-11.452c11.528 3.274 20 13.889 20 26.452s-8.472 23.178-20 26.452v-11.452h-15v12.5h-225v-12.5h-15v11.452c-11.528-3.274-20-13.889-20-26.452s8.472-23.178 20-26.452z"/><path d="m444.5 402.5h-377c-37.22 0-67.5 30.28-67.5 67.5v32c0 4.142 3.358 7.5 7.5 7.5h497c4.142 0 7.5-3.358 7.5-7.5v-32c0-37.22-30.28-67.5-67.5-67.5zm-377 15h377c14.609 0 27.839 6.003 37.365 15.667h-451.73c9.526-9.664 22.756-15.667 37.365-15.667zm-47.726 30.667h472.452c2.237 4.871 3.749 10.137 4.4 15.667h-481.252c.651-5.531 2.163-10.797 4.4-15.667zm477.226 46.333h-482v-15.667h482z"/></svg>