<svg id="Capa_1" enable-background="new 0 0 511.982 511.982" height="512" viewBox="0 0 511.982 511.982" width="512" fill="#78281F" xmlns="http://www.w3.org/2000/svg"><g><g><path d="m485.864 193.732c-.891-.692-57.493-44.816-57.493-44.816-10.03-7.823-22.671-12.169-35.389-12.169h-161.57c-14.663 0-27.104 5.883-38.54 14.553l-59.244 44.912c-4.676 3.545-10.182 5.971-15.922 7.015-.194.035-.388.077-.581.124l-68.535 16.723c-16.11 3.021-30.042 14.263-36.41 29.402l-8.825 20.964c-5.623 13.328-4.113 28.62 4.038 40.904 8.16 12.298 21.669 19.64 36.137 19.64h21.584c3.398 24.954 24.834 44.251 50.705 44.251s47.307-19.297 50.705-44.251h55.296c5.523 0 10-4.477 10-10s-4.477-10-10-10h-56.509c-5.857-22.115-26.611-38.125-49.495-38.125-22.869 0-43.639 16.032-49.495 38.125h-22.791c-7.749 0-15.027-3.999-19.472-10.697-4.501-6.785-5.331-14.83-2.272-22.08l2.053-4.877h15.697c5.523 0 10-4.477 10-10s-4.477-10-10-10h-6.899c4.342-7.063 11.611-12.15 19.823-13.632.199-.036.397-.078.594-.126l68.538-16.723c8.599-1.614 16.832-5.248 23.858-10.512 6.583 9.093 17.296 14.909 29.02 14.909h119.658c12.948 0 23.482-10.534 23.482-23.483v-47.014h30.394v44.367c0 12.948 10.534 23.482 23.482 23.482h73.235c12.182 0 23.782-4.24 33.004-11.836 9.838 7.798 14.257 12.325 14.257 19.498v66.842c0 6.552-5.34 11.882-11.905 11.882h-13.095c-5.854-22.159-26.567-38.125-49.487-38.125-22.926 0-43.642 15.96-49.497 38.125h-58.203c-5.523 0-10 4.477-10 10s4.477 10 10 10h56.991c3.398 24.954 24.834 44.251 50.705 44.251s47.307-19.297 50.705-44.251h11.882c17.592 0 31.905-14.302 31.905-31.882v-66.842c-.001-18.244-12.104-27.643-26.119-38.528zm-370.045 161.503c-17.197 0-31.188-13.991-31.188-31.188 0-16.35 13.292-30.33 29.626-31.148 17.519-.87 32.75 13.606 32.75 31.148 0 17.197-13.991 31.188-31.188 31.188zm181.791-151.473c0 1.92-1.562 3.483-3.482 3.483h-119.659c-5.346 0-10.217-2.735-13.087-6.975l47.336-35.885c6.468-4.91 14.57-7.632 22.688-7.632h66.203v47.009zm73.876.835c-1.92 0-3.482-1.562-3.482-3.482v-44.362h24.976c8.29 0 16.561 2.83 23.095 7.94l45.246 35.27c-4.941 3.003-10.66 4.635-16.599 4.635h-73.236zm46.004 150.638c-17.197 0-31.188-13.991-31.188-31.188 0-16.915 14.25-31.188 31.188-31.188 16.937 0 31.188 14.283 31.188 31.188 0 17.197-13.991 31.188-31.188 31.188z"/><path d="m314.104 263.329c0-5.523-4.477-10-10-10h-20.231c-5.523 0-10 4.477-10 10s4.477 10 10 10h20.231c5.523 0 10-4.477 10-10z"/><path d="m276.012 317.161c-2.067-5.042-8.036-7.491-13.06-5.41-5.033 2.084-7.494 8.027-5.41 13.06 2.085 5.034 8.03 7.487 13.06 5.41 5.027-2.076 7.503-8.036 5.41-13.06z"/></g></g></svg>